<?xml version="1.0" encoding="UTF-8" standalone="no"?>
<svg viewBox="0 0 512 512" version="1.1" id="svg1" sodipodi:docname="seal-question copy.svg" inkscape:version="1.3.2 (091e20ef0f, 2023-11-25)" xmlns:inkscape="http://www.inkscape.org/namespaces/inkscape" xmlns:sodipodi="http://sodipodi.sourceforge.net/DTD/sodipodi-0.dtd" xmlns="http://www.w3.org/2000/svg" xmlns:svg="http://www.w3.org/2000/svg">
  <defs id="defs1" />
  <sodipodi:namedview id="namedview1" pagecolor="#505050" bordercolor="#eeeeee" borderopacity="1" inkscape:showpageshadow="0" inkscape:pageopacity="0" inkscape:pagecheckerboard="0" inkscape:deskcolor="#d1d1d1" inkscape:zoom="1.0400391" inkscape:cx="-1.4422535" inkscape:cy="368.73615" inkscape:window-width="2560" inkscape:window-height="1341" inkscape:window-x="0" inkscape:window-y="0" inkscape:window-maximized="1" inkscape:current-layer="svg1" />
  <!-- Font Awesome Pro 6.0.0-alpha2 by @fontawesome - https://fontawesome.com License - https://fontawesome.com/license (Commercial License) -->
  <path d="m 255.647,336 c -18,0 -32,14 -32,32 0,18 14,32 32,32 18,0 32,-14 32,-32 0,-18 -14,-32 -32,-32 z m 34,-208 h -52 c -39,0 -70,31 -70,70 0,13 11,24 24,24 13,0 24,-11 24,-24 0,-12 10,-22 22,-22 h 52 c 12,0 22,10 22,22 0,8 -4,15 -11,19 l -57,34 c -8,5 -12,13 -12,21 v 16 c 0,13 11,24 24,24 13,0 24,-11 24,-24 v -2 l 46,-28 c 21,-13 34,-36 34,-60 0,-39 -31,-70 -70,-70 z" id="path1" sodipodi:nodetypes="sssssssssssssccssssccss" transform="translate(-7.647,1.697007)" />
  <path d="m 493.235,222.059 -45.588,-45.588 v -64.471 c 0,-26.51 -21.49,-48 -48,-48 h -64.47 l -45.588,-45.588 c -9.373,-9.373 -21.656,-14.058 -33.942,-14.058 -12.283,0 -24.568,4.685 -33.941,14.058 l -45.588,45.588 h -64.471 c -26.509,0 -48,21.49 -48,48 v 64.471 l -45.587,45.588 c -18.747,18.744 -18.747,49.136 0,67.882 l 45.587,45.588 v 64.471 c 0,26.51 21.491,48 48,48 h 64.471 l 45.588,45.588 c 9.373,9.371 21.658,14.058 33.941,14.058 12.286,0 24.569,-4.687 33.942,-14.058 l 45.588,-45.588 h 64.47 c 26.51,0 48,-21.49 48,-48 v -64.471 l 45.588,-45.588 c 18.746,-18.746 18.746,-49.138 0,-67.882 z m -79.529,79.529 c -9,9.002 -14.059,21.211 -14.059,33.941 v 64.471 h -64.47 c -12.731,0 -24.94,5.057 -33.942,14.059 l -45.588,45.587 -45.587,-45.587 c -9.002,-9.002 -21.211,-14.059 -33.942,-14.059 h -64.471 v -64.471 c 0,-12.73 -5.056,-24.939 -14.058,-33.941 l -45.588,-45.588 45.588,-45.588 c 9.002,-9.002 14.058,-21.211 14.058,-33.941 v -64.471 h 64.471 c 12.731,0 24.94,-5.057 33.942,-14.059 l 45.543,-45.584 c 0.003,-0.002 0.021,-0.003 0.044,-0.003 l 45.588,45.587 c 9.002,9.002 21.211,14.059 33.942,14.059 h 64.47 v 64.471 c 0,12.73 5.059,24.939 14.059,33.941 l 45.588,45.588 z" id="path5" transform="translate(0.352875)" sodipodi:nodetypes="ccsscssscssccccssccsccsscsccscsccsscsscsscsccccscsccc" />
</svg>
